# xmcd CD database file
#
# Track frame offsets:
#	150
#	13800
#	39526
#
# Disc length: 792 seconds
#
# Revision: 1
# Processed by: cddbd v1.5.2PL0 Copyright (c) Steve Scherf et al.
# Submitted via: CDex 1.70beta2
#
DISCID=1d031603
DTITLE=↑THE HIGH-LOWS↓ - 夏なんだな
DYEAR=2003
DGENRE=Rock
TTITLE0=夏なんだな
TTITLE1=プール帰り
TTITLE2=ジェリーロール
EXTD=YEAR: 2003
EXTT0=
EXTT1=
EXTT2=
PLAYORDER=
